<svg xmlns="http://www.w3.org/2000/svg" xmlns:xlink="http://www.w3.org/1999/xlink" width="449.902" height="383.275" viewBox="0 0 449.902 383.275">
  <defs>
    <clipPath id="clip-path">
      <path id="Path_63" data-name="Path 63" d="M215,498H449.9V709H215Zm0,0"/>
    </clipPath>
    <clipPath id="clip-path-2">
      <path id="Path_83" data-name="Path 83" d="M0,458.727H190V719H0Zm0,0"/>
    </clipPath>
  </defs>
  <g id="surface1" transform="translate(0 -458.727)">
    <path id="Path_1" data-name="Path 1" d="M88.055,838.891s7.387-7.911,14.043-10.25,15.175-1.239,28.914,2.453,24.211,11.726,65.129,10.84c26.07-.567,63.414-11.215,79.379-22.789s25.683-37.278,26.707-54.5c1.269-21.363-18.129-33.761-40.536-42.043-15.91-5.875-104.117-10.128-142.277,33.4-15.3,17.449-36.266,46.465-31.359,82.887" fill="#bfb290"/>
    <path id="Path_2" data-name="Path 2" d="M126.754,765.859l.355-2.129,7.262-1.292-.422,2.136-7.2,1.285" fill="#f4f4f4"/>
    <path id="Path_3" data-name="Path 3" d="M139.969,764.461a7.972,7.972,0,0,0,3.117.051,2.226,2.226,0,0,0,1.539-.723,1.579,1.579,0,0,0,.023-1l-.293-1.637a1.458,1.458,0,0,0-.226-.676.657.657,0,0,0-.524-.128,6.712,6.712,0,0,0-.761.113l-.629.121a2.959,2.959,0,0,1-2.348-.219,3.135,3.135,0,0,1-.847-1.859l-.469-2.629a2.521,2.521,0,0,1,.355-2.02,4.351,4.351,0,0,1,2.8-1.336,8.255,8.255,0,0,1,3.113-.043l.4,2.208a11.855,11.855,0,0,0-3.031.019,1.951,1.951,0,0,0-1.1.5.839.839,0,0,0-.184.707c.008.043.032.172.071.395l.207,1.16a1.449,1.449,0,0,0,.211.644.954.954,0,0,0,.722.094c.129-.008.594-.082,1.4-.227a4.21,4.21,0,0,1,1.875-.035q.849.288,1.2,2.254l.418,2.348a5.172,5.172,0,0,1-.02,2.4q-.439,1.436-3.234,1.934a7.457,7.457,0,0,1-3.363-.039l-.422-2.383" fill="#f4f4f4"/>
    <path id="Path_4" data-name="Path 4" d="M153.918,750.77l.4,2.238a4.879,4.879,0,0,0-2.113-.121,2.237,2.237,0,0,0-1.387.672,1.379,1.379,0,0,0-.14,1.125l1.16,6.5a2.8,2.8,0,0,0,.414,1.242c.258.289.746.367,1.465.238a5.841,5.841,0,0,0,2.105-.891l.414,2.332a7.278,7.278,0,0,1-2.566.993,4.621,4.621,0,0,1-2.691-.172,2.213,2.213,0,0,1-1.239-1.539c-.062-.246-.156-.7-.273-1.352l-1.328-7.437a3.564,3.564,0,0,1,.09-1.969q.563-1.383,3.14-1.844a7.089,7.089,0,0,1,2.551-.019" fill="#f4f4f4"/>
    <path id="Path_5" data-name="Path 5" d="M156.469,749.941l2.472-.441.969,5.426,3.317-.59-.969-5.426,2.472-.441,2.524,14.133-2.473.441-1.148-6.441-3.317.593,1.153,6.442-2.477.441-2.523-14.137" fill="#f4f4f4"/>
    <path id="Path_6" data-name="Path 6" d="M170.293,762.059l-2.523-14.133,2.476-.446,2.524,14.137-2.477.442" fill="#f4f4f4"/>
    <path id="Path_7" data-name="Path 7" d="M177.344,748.371l-3.985.715-.375-2.094,7.4-1.32L177.9,758.3l4.153-.742.414,2.332-7.578,1.351,2.457-12.867" fill="#f4f4f4"/>
    <path id="Path_8" data-name="Path 8" d="M185.637,748.227l1.215,6.816a2.616,2.616,0,0,0,.453,1.266,1.867,1.867,0,0,0,1.617.211c.738-.129,1.2-.375,1.375-.735a1.932,1.932,0,0,0,.051-1.152l-1.227-6.875a2.678,2.678,0,0,0-.336-1.1.9.9,0,0,0-.5-.262,4.3,4.3,0,0,0-1.316.086,2.216,2.216,0,0,0-1.035.375A1.408,1.408,0,0,0,185.637,748.227Zm-1.192,7.984-1.5-8.41a2.689,2.689,0,0,1,.313-2.149q.568-.756,3.594-1.293c1.863-.332,3.058-.293,3.582.129a3.216,3.216,0,0,1,.922,1.992l1.468,8.235a3.575,3.575,0,0,1-.269,2.558,2.444,2.444,0,0,1-1.266.922,11.76,11.76,0,0,1-1.883.461,10.528,10.528,0,0,1-3.039.223,1.678,1.678,0,0,1-1.269-.766,5.314,5.314,0,0,1-.649-1.9" fill="#f4f4f4"/>
    <path id="Path_9" data-name="Path 9" d="M193.777,743.281l5.789-1.035.387,2.176-3.312.59.6,3.347,3.313-.593.394,2.207-3.312.59,1.14,6.41-2.472.441-2.524-14.133" fill="#f4f4f4"/>
    <path id="Path_10" data-name="Path 10" d="M205.566,746.926l2.008-.36a1.355,1.355,0,0,0,.817-.347.99.99,0,0,0,.05-.727l-.293-1.648c-.07-.379-.191-.6-.367-.672a1.963,1.963,0,0,0-.828.031l-1.988.356Zm-1.007,9.015L202.035,741.8l5.188-.926a3.149,3.149,0,0,1,2.238.148,2.8,2.8,0,0,1,.922,1.875l.383,2.145a2.238,2.238,0,0,1-.067,1.41,1.876,1.876,0,0,1-.785.633c-.109.062-.344.172-.7.328,1.105.141,1.773.422,2,.84a4.976,4.976,0,0,1,.363,1.32l.887,4.953-2.332.414-.969-5.425a1.422,1.422,0,0,0-.219-.633c-.1-.11-.281-.145-.55-.094l-2.414.43,1.121,6.265-2.539.453" fill="#f4f4f4"/>
    <path id="Path_11" data-name="Path 11" d="M212.84,739.875l5.9-1.055.387,2.176-3.426.613.57,3.188,3.426-.609.406,2.269-3.425.609.738,4.153,3.43-.614.418,2.352-5.9,1.055-2.523-14.137" fill="#f4f4f4"/>
    <path id="Path_12" data-name="Path 12" d="M221.355,738.355l3.079-.546,5.691,9.132-1.758-9.836,2.328-.417,2.528,14.136-2.778.492-5.867-9.41,1.809,10.137-2.508.449-2.524-14.137" fill="#f4f4f4"/>
    <path id="Path_13" data-name="Path 13" d="M236.262,750.281l-2.528-14.136,2.477-.442,2.523,14.137-2.472.441" fill="#f4f4f4"/>
    <path id="Path_14" data-name="Path 14" d="M243.738,736.359l-.261,7.153,3.011-.539Zm7.3,11.282-2.586.461-1.113-2.942-3.914.7-.141,3.164-2.648.477,1.14-14.789,3.168-.566,6.094,13.5" fill="#f4f4f4"/>
    <path id="Path_15" data-name="Path 15" d="M254.73,743.008l.36-2.129,7.262-1.293-.422,2.137-7.2,1.285" fill="#f4f4f4"/>
    <path id="Path_16" data-name="Path 16" d="M151.746,777.043l3.074-.547,5.7,9.137-1.758-9.84,2.328-.414,2.523,14.133-2.773.5-5.867-9.414,1.808,10.136-2.507.45-2.524-14.137" fill="#f4f4f4"/>
    <path id="Path_17" data-name="Path 17" d="M166.648,788.969l-2.523-14.133,2.477-.441,2.523,14.132-2.477.442" fill="#f4f4f4"/>
    <path id="Path_18" data-name="Path 18" d="M169.641,773.852l5.9-1.055.391,2.176-3.43.609.57,3.191,3.426-.613.406,2.27-3.429.609.742,4.152,3.429-.609.418,2.348-5.9,1.054-2.523-14.132" fill="#f4f4f4"/>
    <path id="Path_19" data-name="Path 19" d="M184.191,774.746l1.219,6.813a2.606,2.606,0,0,0,.449,1.265,1.854,1.854,0,0,0,1.621.215c.739-.133,1.2-.379,1.375-.738a1.96,1.96,0,0,0,.051-1.153l-1.23-6.875a2.68,2.68,0,0,0-.332-1.093.871.871,0,0,0-.5-.266,4.3,4.3,0,0,0-1.321.086,2.175,2.175,0,0,0-1.035.379A1.414,1.414,0,0,0,184.191,774.746ZM183,782.727l-1.5-8.411a2.691,2.691,0,0,1,.309-2.148c.379-.5,1.578-.934,3.593-1.293,1.868-.332,3.059-.289,3.582.129a3.21,3.21,0,0,1,.922,2l1.473,8.23a3.6,3.6,0,0,1-.274,2.559,2.434,2.434,0,0,1-1.265.922,11.7,11.7,0,0,1-1.883.465,10.823,10.823,0,0,1-3.039.222,1.7,1.7,0,0,1-1.27-.765,5.4,5.4,0,0,1-.648-1.906" fill="#f4f4f4"/>
    <path id="Path_20" data-name="Path 20" d="M198.52,769.066l.4,2.239a4.934,4.934,0,0,0-2.117-.125,2.242,2.242,0,0,0-1.387.675,1.384,1.384,0,0,0-.141,1.125l1.161,6.5a2.754,2.754,0,0,0,.414,1.239c.257.293.746.371,1.465.242a5.784,5.784,0,0,0,2.1-.891l.418,2.332a7.361,7.361,0,0,1-2.57.992,4.654,4.654,0,0,1-2.692-.171,2.216,2.216,0,0,1-1.234-1.543c-.067-.243-.156-.7-.274-1.348l-1.328-7.438a3.613,3.613,0,0,1,.086-1.968q.563-1.383,3.145-1.844a7.024,7.024,0,0,1,2.551-.02" fill="#f4f4f4"/>
    <path id="Path_21" data-name="Path 21" d="M201.066,768.238l5.9-1.054.386,2.175-3.425.614.57,3.187,3.426-.613.406,2.269-3.43.614.743,4.152,3.429-.613.418,2.351-5.9,1.051-2.524-14.133" fill="#f4f4f4"/>
    <path id="Path_22" data-name="Path 22" d="M209.582,766.719l3.078-.551,5.692,9.137-1.758-9.84,2.332-.414,2.523,14.133-2.777.5-5.867-9.414,1.808,10.14-2.508.446-2.523-14.133" fill="#f4f4f4"/>
    <path id="Path_23" data-name="Path 23" d="M224.484,778.641l-2.523-14.133,2.477-.442,2.523,14.133-2.477.442" fill="#f4f4f4"/>
    <path id="Path_24" data-name="Path 24" d="M231.965,764.719l-.262,7.152,3.012-.539ZM239.27,776l-2.59.461-1.114-2.945-3.914.7-.14,3.164-2.653.472L230,763.07l3.168-.562,6.1,13.5" fill="#f4f4f4"/>
    <path id="Path_25" data-name="Path 25" d="M241.355,775.512l-.433-2.422a1.974,1.974,0,0,0,1.109.176.815.815,0,0,0,.7-.512,1.718,1.718,0,0,0-.011-.777l-1.934-10.832,2.473-.442,1.933,10.832a5.268,5.268,0,0,1,.059,2.418,2.044,2.044,0,0,1-.488.789,2.965,2.965,0,0,1-1.575.754,6.466,6.466,0,0,1-1.836.016" fill="#f4f4f4"/>
    <path id="Path_26" data-name="Path 26" d="M129.551,819.516l2.058-.371c.567-.1.918-.274,1.051-.516a2.37,2.37,0,0,0-.019-1.3l-1.211-6.793a1.167,1.167,0,0,0-1.559-1.133l-2.062.368Zm-2.071,2.707-2.523-14.133,5.4-.965a3.1,3.1,0,0,1,2.481.359,2.837,2.837,0,0,1,.926,1.832l1.433,8.024a9.952,9.952,0,0,1,.18,1.656,2.138,2.138,0,0,1-.445,1.3,3.173,3.173,0,0,1-2.047.965l-5.407.965" fill="#f4f4f4"/>
    <path id="Path_27" data-name="Path 27" d="M139.172,809.043l1.219,6.816a2.577,2.577,0,0,0,.449,1.266,1.875,1.875,0,0,0,1.617.215c.738-.133,1.2-.379,1.375-.738a1.9,1.9,0,0,0,.051-1.153l-1.227-6.875a2.654,2.654,0,0,0-.336-1.1.876.876,0,0,0-.5-.262,4.268,4.268,0,0,0-1.32.086,2.17,2.17,0,0,0-1.031.379A1.4,1.4,0,0,0,139.172,809.043Zm-1.192,7.984-1.5-8.41a2.687,2.687,0,0,1,.312-2.148q.568-.756,3.594-1.293,2.795-.5,3.582.129a3.21,3.21,0,0,1,.922,1.992l1.468,8.234a3.575,3.575,0,0,1-.269,2.559,2.449,2.449,0,0,1-1.266.922,12.278,12.278,0,0,1-1.882.465,10.639,10.639,0,0,1-3.04.218,1.68,1.68,0,0,1-1.269-.765,5.321,5.321,0,0,1-.649-1.9" fill="#f4f4f4"/>
    <path id="Path_28" data-name="Path 28" d="M146.516,804.238l2.679-.476,3.243,9,.457-9.656,2.8-.5,3.746,9.609-.082-10.266,2.395-.425-.192,14.617-2.6.465-4.028-10.168-.414,10.961-2.746.492-5.265-13.649" fill="#f4f4f4"/>
    <path id="Path_29" data-name="Path 29" d="M166.266,815.3l-2.528-14.133,2.477-.441,2.523,14.132-2.472.442" fill="#f4f4f4"/>
    <path id="Path_30" data-name="Path 30" d="M169.254,800.18l5.9-1.055.387,2.176-3.426.613.571,3.188,3.425-.614.407,2.27-3.43.613.742,4.152,3.43-.613.418,2.352-5.9,1.051-2.523-14.133" fill="#f4f4f4"/>
    <path id="Path_31" data-name="Path 31" d="M182.363,810.086l2.063-.371c.562-.1.914-.274,1.051-.52a2.376,2.376,0,0,0-.02-1.3l-1.215-6.793a1.391,1.391,0,0,0-.531-1.012,1.434,1.434,0,0,0-1.027-.117l-2.059.367Zm-2.07,2.707L177.77,798.66l5.406-.969a3.114,3.114,0,0,1,2.476.36,2.8,2.8,0,0,1,.926,1.836l1.434,8.023a9.125,9.125,0,0,1,.179,1.656,2.109,2.109,0,0,1-.441,1.3,3.187,3.187,0,0,1-2.051.965l-5.406.965" fill="#f4f4f4"/>
    <path id="Path_32" data-name="Path 32" d="M193.051,798.09l-3.988.711-.375-2.09,7.406-1.324L193.6,808.012l4.153-.742.414,2.332-7.578,1.355,2.457-12.867" fill="#f4f4f4"/>
    <path id="Path_33" data-name="Path 33" d="M202.828,805.758a7.993,7.993,0,0,0,3.117.051,2.231,2.231,0,0,0,1.539-.723,1.58,1.58,0,0,0,.024-1l-.289-1.633a1.451,1.451,0,0,0-.231-.676.65.65,0,0,0-.523-.132q-.182.01-.762.117l-.629.121a2.957,2.957,0,0,1-2.347-.223,3.093,3.093,0,0,1-.844-1.855l-.469-2.633a2.5,2.5,0,0,1,.356-2.016,4.322,4.322,0,0,1,2.793-1.336,8.233,8.233,0,0,1,3.113-.043l.394,2.207a11.924,11.924,0,0,0-3.031.016,2,2,0,0,0-1.1.508.838.838,0,0,0-.179.707c0,.039.027.172.066.39l.207,1.161a1.44,1.44,0,0,0,.215.648.971.971,0,0,0,.723.094c.125-.008.593-.086,1.4-.231a4.208,4.208,0,0,1,1.875-.035c.57.192.969.942,1.2,2.254l.422,2.352a5.243,5.243,0,0,1-.019,2.4q-.439,1.436-3.239,1.934a7.5,7.5,0,0,1-3.359-.039l-.426-2.383" fill="#f4f4f4"/>
    <path id="Path_34" data-name="Path 34" d="M213.117,806.934,210.594,792.8l2.476-.442,2.524,14.137-2.477.442" fill="#f4f4f4"/>
    <path id="Path_35" data-name="Path 35" d="M224.285,804.938l-.164.148-.168.137a3.486,3.486,0,0,0-.637.679,1.408,1.408,0,0,0-.168.993.917.917,0,0,0,.571.722.631.631,0,0,0,.246.071,8.525,8.525,0,0,0,.918-.122l.137-.023a1.732,1.732,0,0,1,.2-.023l.183,1.035-.183.043c-.352.07-.559.109-.621.121a2.514,2.514,0,0,1-1.692-.192,1.6,1.6,0,0,1-.875-1.144,2.3,2.3,0,0,1,.821-2.164l.027-.028-4.246.758-2.524-14.136,5.9-1.055.386,2.176-3.425.613.566,3.187,3.43-.609.406,2.266-3.43.613.743,4.152,3.425-.613.422,2.352-.25.043" fill="#f4f4f4"/>
    <path id="Path_36" data-name="Path 36" d="M226.6,789.941l2.683-.48,3.239,9,.457-9.656,2.8-.5,3.746,9.609-.078-10.265,2.391-.426-.188,14.621-2.6.461-4.032-10.168-.414,10.961-2.742.492L226.6,789.941" fill="#f4f4f4"/>
    <path id="Path_37" data-name="Path 37" d="M246.348,801l-2.524-14.137,2.477-.441,2.519,14.137-2.472.441" fill="#f4f4f4"/>
    <path id="Path_38" data-name="Path 38" d="M257.516,799l-.164.148-.168.137a3.781,3.781,0,0,0-.641.68,1.379,1.379,0,0,0-.164.992.919.919,0,0,0,.566.723.58.58,0,0,0,.246.07,8.692,8.692,0,0,0,.922-.121l.133-.024c.043-.007.109-.015.2-.023l.188,1.035-.188.043c-.347.07-.554.109-.621.121a2.5,2.5,0,0,1-1.687-.191,1.616,1.616,0,0,1-.879-1.145,2.31,2.31,0,0,1,.82-2.164l.027-.027-4.246.758-2.519-14.137,5.9-1.055.391,2.176-3.43.613.571,3.188,3.429-.61.406,2.266-3.429.613.738,4.153,3.43-.614.422,2.352-.25.043" fill="#f4f4f4"/>
    <path id="Path_39" data-name="Path 39" d="M264.039,783.629l.4,2.238a4.907,4.907,0,0,0-2.118-.125,2.241,2.241,0,0,0-1.382.672,1.353,1.353,0,0,0-.141,1.129l1.156,6.5a2.828,2.828,0,0,0,.414,1.242c.262.289.746.367,1.469.242a5.928,5.928,0,0,0,2.105-.89l.414,2.332a7.352,7.352,0,0,1-2.57.992,4.67,4.67,0,0,1-2.687-.172,2.231,2.231,0,0,1-1.239-1.543c-.066-.242-.156-.695-.273-1.351l-1.328-7.434a3.62,3.62,0,0,1,.086-1.973q.568-1.383,3.144-1.843a7.063,7.063,0,0,1,2.551-.016" fill="#f4f4f4"/>
    <path id="Path_40" data-name="Path 40" d="M266.59,782.8l5.9-1.055.387,2.176-3.43.609.571,3.192,3.429-.614.406,2.27-3.429.609.742,4.153,3.43-.61.418,2.348-5.9,1.055L266.59,782.8" fill="#f4f4f4"/>
    <path id="Path_41" data-name="Path 41" d="M277.234,795.367l-.429-2.426a1.956,1.956,0,0,0,1.109.176.808.808,0,0,0,.7-.508,1.663,1.663,0,0,0-.011-.777L276.668,781l2.477-.441,1.933,10.832a5.367,5.367,0,0,1,.059,2.414,2.087,2.087,0,0,1-.492.793,3.007,3.007,0,0,1-1.575.75,6.492,6.492,0,0,1-1.836.019" fill="#f4f4f4"/>
    <path id="Path_42" data-name="Path 42" d="M154.762,826.977l1.543-.274,1.375,3.59.222-3.879,1.426-.254,1.527,3.492,0-3.765,1.446-.254-.461,5.758-1.426.254-1.5-3.473-.223,3.781-1.461.262-2.476-5.238" fill="#f14624"/>
    <path id="Path_43" data-name="Path 43" d="M162.465,825.6l1.547-.278,1.375,3.594.222-3.879,1.426-.254,1.524,3.488.007-3.761,1.442-.258-.457,5.762-1.426.254-1.5-3.477-.223,3.785-1.461.262-2.48-5.238" fill="#f14624"/>
    <path id="Path_44" data-name="Path 44" d="M170.172,824.227l1.547-.278,1.375,3.59.222-3.875,1.422-.254,1.528,3.488.007-3.761,1.442-.258-.461,5.762-1.422.254-1.5-3.477-.219,3.785-1.461.258-2.48-5.234" fill="#f14624"/>
    <path id="Path_45" data-name="Path 45" d="M179.477,826.68a.728.728,0,0,1,.586.144.782.782,0,0,1,.308.492.714.714,0,0,1-.156.6.75.75,0,0,1-.457.27.827.827,0,0,1-.52-.086.7.7,0,0,1-.379-.532.749.749,0,0,1,.168-.617.731.731,0,0,1,.45-.273" fill="#f14624"/>
    <path id="Path_46" data-name="Path 46" d="M183.7,825.77l-.4-2.247a.651.651,0,0,0-.192-.429.762.762,0,0,0-.554-.051c-.274.047-.434.145-.492.293a.808.808,0,0,0,0,.422l.39,2.18a.876.876,0,0,0,.156.421.591.591,0,0,0,.567.1,1.041,1.041,0,0,0,.344-.125.466.466,0,0,0,.2-.191A.972.972,0,0,0,183.7,825.77Zm-2.554.937-.543-3.043a1.273,1.273,0,0,1,.152-1.035,2.682,2.682,0,0,1,1.66-.734,2.4,2.4,0,0,1,1.789.148,1.472,1.472,0,0,1,.4.906l.535,3a1.2,1.2,0,0,1-.125.9,2.539,2.539,0,0,1-1.66.785q-1.976.351-2.2-.922" fill="#f14624"/>
    <path id="Path_47" data-name="Path 47" d="M185.223,821.539l.539-.1-.239-1.328,1.36-.242.234,1.328.852-.152.2,1.094-.851.152.5,2.762a.662.662,0,0,0,.156.4.355.355,0,0,0,.277.086,1.43,1.43,0,0,0,.559-.324l.2,1.148a3.428,3.428,0,0,1-1.074.465,1.428,1.428,0,0,1-.938-.164.679.679,0,0,1-.332-.348,7.038,7.038,0,0,1-.18-.847l-.527-2.934-.535.094-.195-1.09" fill="#f14624"/>
    <path id="Path_48" data-name="Path 48" d="M188.387,820.973l1.543-.278,1.375,3.594.222-3.879,1.426-.254,1.527,3.492,0-3.765,1.446-.258-.461,5.762-1.426.254-1.5-3.477-.223,3.785-1.461.262-2.476-5.238" fill="#f14624"/>
    <path id="Path_49" data-name="Path 49" d="M199.031,822.086c-.4.07-.562.328-.484.773a1.864,1.864,0,0,0,.211.653c.094.144.262.195.512.148.359-.062.543-.219.558-.472a3.984,3.984,0,0,0-.078-.653C199.684,822.164,199.441,822.012,199.031,822.086Zm.477-.664-.11-.609a.664.664,0,0,0-.269-.5,1.285,1.285,0,0,0-.84-.083,5.577,5.577,0,0,0-1.3.458l-.2-1.118a8.146,8.146,0,0,1,1.441-.468,4.539,4.539,0,0,1,1.286-.032,1.311,1.311,0,0,1,.769.3,1.922,1.922,0,0,1,.352.953l.715,4.012-1.286.23-.113-.64a1.308,1.308,0,0,1-.3.578,1.449,1.449,0,0,1-.769.355,1.332,1.332,0,0,1-1.09-.168,1.026,1.026,0,0,1-.352-.64l-.218-1.238a1.258,1.258,0,0,1,.148-1.047,1.531,1.531,0,0,1,.938-.473,2.379,2.379,0,0,1,1.195.129" fill="#f14624"/>
    <path id="Path_50" data-name="Path 50" d="M201.523,818.629l1.442-.258.16.887a2.031,2.031,0,0,1,.563-.949,1.948,1.948,0,0,1,.636-.18l.289,1.617a1.151,1.151,0,0,0-.726-.164c-.457.082-.633.4-.535.941l.6,3.352-1.445.258-.981-5.5" fill="#f14624"/>
    <path id="Path_51" data-name="Path 51" d="M205.1,817.988l.535-.093-.238-1.329,1.359-.242.234,1.328.852-.152.2,1.09-.851.152.5,2.766a.67.67,0,0,0,.156.394.325.325,0,0,0,.277.086,1.354,1.354,0,0,0,.559-.324l.207,1.149a3.379,3.379,0,0,1-1.078.464,1.384,1.384,0,0,1-.938-.164.681.681,0,0,1-.328-.343,7.014,7.014,0,0,1-.183-.852l-.524-2.934-.539.1-.191-1.094" fill="#f14624"/>
    <path id="Path_52" data-name="Path 52" d="M210.469,819.41l1.164-.207-.141-.781a1.062,1.062,0,0,0-.105-.359c-.1-.133-.282-.176-.547-.129a.635.635,0,0,0-.492.285.693.693,0,0,0-.016.426Zm2.605.535-2.433.438.082.449a.791.791,0,0,0,.144.387c.153.179.442.234.871.156a2.978,2.978,0,0,0,1.457-.734l.243,1.359a5.169,5.169,0,0,1-1.59.57,3.089,3.089,0,0,1-1.625-.066.948.948,0,0,1-.528-.5,2.819,2.819,0,0,1-.2-.7l-.473-2.645a1.966,1.966,0,0,1,0-.929,1.179,1.179,0,0,1,1.023-.7l1.1-.2a1.283,1.283,0,0,1,1.281.27,1.915,1.915,0,0,1,.289.816l.363,2.031" fill="#f14624"/>
    <path id="Path_53" data-name="Path 53" d="M215.34,817.859l.348,1.946a1.181,1.181,0,0,0,.175.5c.1.129.321.16.664.1.258-.043.4-.144.426-.3a1.641,1.641,0,0,0-.031-.531l-.344-1.922a.512.512,0,0,0-.683-.453c-.317.054-.5.179-.559.367A.7.7,0,0,0,215.34,817.859Zm-.8-4.379.578,3.239a2.219,2.219,0,0,1,.3-.442,1.474,1.474,0,0,1,.813-.336c.695-.125,1.152-.05,1.371.219a1.542,1.542,0,0,1,.226.649l.567,3.179a1.868,1.868,0,0,1-.028.957c-.113.313-.5.524-1.168.645a1.177,1.177,0,0,1-.894-.1,3.454,3.454,0,0,1-.391-.343l.1.574-1.391.25-1.469-8.239,1.387-.25" fill="#f14624"/>
    <path id="Path_54" data-name="Path 54" d="M218.793,815.543l1.441-.258.161.887a2.034,2.034,0,0,1,.566-.945,1.91,1.91,0,0,1,.633-.184l.289,1.617a1.176,1.176,0,0,0-.727-.164c-.453.082-.633.4-.535.945l.6,3.348-1.442.258-.984-5.5" fill="#f14624"/>
    <path id="Path_55" data-name="Path 55" d="M224.824,817.48c-.4.075-.562.329-.484.774a1.755,1.755,0,0,0,.211.652c.094.145.262.2.512.153.359-.067.542-.223.558-.473a3.69,3.69,0,0,0-.082-.656C225.473,817.559,225.234,817.406,224.824,817.48Zm.477-.664-.11-.609a.656.656,0,0,0-.269-.5,1.287,1.287,0,0,0-.84-.078,5.3,5.3,0,0,0-1.3.453l-.2-1.113a8.009,8.009,0,0,1,1.441-.473,4.4,4.4,0,0,1,1.286-.027,1.28,1.28,0,0,1,.769.3,1.917,1.917,0,0,1,.352.953l.715,4.011-1.286.231-.113-.641a1.285,1.285,0,0,1-.3.578,1.458,1.458,0,0,1-.769.356,1.332,1.332,0,0,1-1.09-.168,1.026,1.026,0,0,1-.352-.641l-.218-1.238a1.244,1.244,0,0,1,.148-1.047,1.536,1.536,0,0,1,.937-.472,2.385,2.385,0,0,1,1.2.128" fill="#f14624"/>
    <path id="Path_56" data-name="Path 56" d="M228.3,819.527l-.984-5.5,1.445-.257.1.574a2.163,2.163,0,0,1,.352-.574,1.5,1.5,0,0,1,.828-.356,1.857,1.857,0,0,1,1.149.059.874.874,0,0,1,.371.492,1.646,1.646,0,0,1,.23-.551,1.4,1.4,0,0,1,.918-.433,1.256,1.256,0,0,1,1.3.3,2.467,2.467,0,0,1,.285.91l.738,4.133-1.441.258-.68-3.8a1.105,1.105,0,0,0-.129-.425.572.572,0,0,0-.558-.11.6.6,0,0,0-.489.293.913.913,0,0,0,.008.453l.68,3.8-1.375.246-.656-3.68a1.448,1.448,0,0,0-.157-.507c-.117-.172-.332-.231-.652-.172-.3.054-.473.168-.523.336a1.409,1.409,0,0,0,.027.574l.656,3.684-1.441.257" fill="#f14624"/>
    <path id="Path_57" data-name="Path 57" d="M236.277,819.82l.344-1.277a2.08,2.08,0,0,0,1.219.25,1.123,1.123,0,0,0,.68-.375,1.1,1.1,0,0,0,.117-.883l-.1-.535a2.107,2.107,0,0,1-.355.543,1.479,1.479,0,0,1-.825.383,1.265,1.265,0,0,1-1.168-.215,2.179,2.179,0,0,1-.394-1.082l-.715-3.992,1.441-.258.649,3.625q.123.7.668.6a.54.54,0,0,0,.449-.364,1.169,1.169,0,0,0,.008-.593l-.621-3.473,1.406-.25.816,4.566c.063.34.106.606.129.805a2.962,2.962,0,0,1-.007,1.141,1.926,1.926,0,0,1-.661,1.035A2.428,2.428,0,0,1,238.2,820a3.913,3.913,0,0,1-1.918-.184" fill="#f14624"/>
    <path id="Path_58" data-name="Path 58" d="M243.254,815.293a.736.736,0,0,1,.586.145.772.772,0,0,1,.305.492.7.7,0,0,1-.157.6.744.744,0,0,1-.453.27.794.794,0,0,1-.519-.09.71.71,0,0,1-.383-.531.744.744,0,0,1,.172-.614.692.692,0,0,1,.449-.273" fill="#f14624"/>
    <path id="Path_59" data-name="Path 59" d="M247.477,814.383l-.4-2.246a.7.7,0,0,0-.187-.434.779.779,0,0,0-.559-.047c-.269.047-.433.145-.488.293a.826.826,0,0,0,0,.422l.387,2.18a.918.918,0,0,0,.156.422.614.614,0,0,0,.566.1,1.018,1.018,0,0,0,.348-.129.442.442,0,0,0,.2-.187A.844.844,0,0,0,247.477,814.383Zm-2.555.933-.543-3.039a1.292,1.292,0,0,1,.148-1.035,2.71,2.71,0,0,1,1.664-.734,2.4,2.4,0,0,1,1.789.148,1.488,1.488,0,0,1,.391.907l.535,3a1.157,1.157,0,0,1-.125.9,2.5,2.5,0,0,1-1.66.781q-1.974.359-2.2-.922" fill="#f14624"/>
    <path id="Path_60" data-name="Path 60" d="M249.3,810.1l1.441-.258.156.887a2.074,2.074,0,0,1,.567-.95,1.976,1.976,0,0,1,.637-.179l.289,1.617a1.128,1.128,0,0,0-.731-.164c-.453.082-.633.394-.531.941l.6,3.352-1.446.258-.98-5.5" fill="#f14624"/>
    <path id="Path_61" data-name="Path 61" d="M254.727,810.848l.359,2.011a1.147,1.147,0,0,0,.144.438.583.583,0,0,0,.586.133c.266-.047.422-.16.469-.336a1.593,1.593,0,0,0-.031-.6l-.316-1.769a.959.959,0,0,0-.176-.5.629.629,0,0,0-.563-.118.534.534,0,0,0-.476.34A.886.886,0,0,0,254.727,810.848Zm-.481,5.656.418-1.184a1.575,1.575,0,0,0,1.125.223c.566-.1.84-.391.828-.871a6.815,6.815,0,0,0-.113-.774c-.027.051-.051.09-.066.118a.984.984,0,0,1-.411.445,2.388,2.388,0,0,1-.613.172,2.035,2.035,0,0,1-.98.008.96.96,0,0,1-.539-.571,3.965,3.965,0,0,1-.207-.816l-.438-2.449a2.412,2.412,0,0,1-.008-1.047c.1-.36.434-.594,1-.7a1.992,1.992,0,0,1,1.106.078,1.575,1.575,0,0,1,.453.371l-.1-.559,1.3-.23.953,5.343a2.7,2.7,0,0,1-.062,1.372,1.666,1.666,0,0,1-.5.691,2.74,2.74,0,0,1-1.321.6,3.075,3.075,0,0,1-1.824-.23" fill="#f14624"/>
    <g id="Component_2_1" data-name="Component 2 – 1" transform="translate(215 498)">
      <g id="Group_1" data-name="Group 1" transform="translate(-215 -498)" clip-path="url(#clip-path)">
        <path id="Path_62" data-name="Path 62" d="M445.352,507.645s-6.813,13.312-13.938,17.085-17.086,1.583-33.543-5.242S367.8,498.5,321.227,498.563c-29.672.039-70.153,16.972-86.008,36.265s-21.672,63.039-19.3,92.547c2.945,36.6,27.668,58.574,54.969,73.578,19.39,10.656,121.05,21.1,155.7-52.219,13.887-29.39,31.871-78.421,18.766-141.089" fill="#bfb290"/>
      </g>
      <path id="Path_64" data-name="Path 64" d="M263.3,536.367l-.6,14.1a5.373,5.373,0,0,0,.332,2.719q.686,1.037,3.133,1.14c1.527.067,2.551-.223,3.062-.855a3.985,3.985,0,0,0,.614-2.274l.6-14.23a5.5,5.5,0,0,0-.179-2.324,1.827,1.827,0,0,0-.872-.747,8.815,8.815,0,0,0-2.668-.414,4.4,4.4,0,0,0-2.218.293A2.867,2.867,0,0,0,263.3,536.367Zm-5.91,15.356.738-17.4a5.483,5.483,0,0,1,1.57-4.14q1.471-1.248,7.727-.985,5.783.246,7.07,1.848,1.084,1.331.953,4.375l-.723,17.039q-.146,3.427-1.671,4.973a4.955,4.955,0,0,1-2.93,1.269,23.63,23.63,0,0,1-3.953.09,21.962,21.962,0,0,1-6.149-.9,3.435,3.435,0,0,1-2.183-2.09,10.786,10.786,0,0,1-.449-4.078" transform="translate(-215 -498)" fill="#fff"/>
      <path id="Path_65" data-name="Path 65" d="M286.742,554.945l4.266.18a2.925,2.925,0,0,0,2.32-.566,4.844,4.844,0,0,0,.539-2.6l.6-14.059a2.852,2.852,0,0,0-.613-2.257,2.911,2.911,0,0,0-1.989-.684l-4.261-.184Zm-5.32,4.473,1.242-29.25,11.188.477q3.363.139,4.773,1.808a5.783,5.783,0,0,1,1.031,4.063l-.707,16.6a18.819,18.819,0,0,1-.379,3.375,4.331,4.331,0,0,1-1.453,2.387q-1.335,1.148-4.508,1.012l-11.187-.477" transform="translate(-215 -498)" fill="#fff"/>
      <path id="Path_66" data-name="Path 66" d="M306.848,531.2l6.429.274,6.243,21.84,8.886-21.2,5.422.231-1.238,29.25-4.934-.207.766-18.024-7.067,17.754-4.328-.183-5.355-17.957-.75,17.7-5.317-.227,1.243-29.25" transform="translate(-215 -498)" fill="#fff"/>
      <path id="Path_67" data-name="Path 67" d="M339.844,561.9l1.238-29.25,5.121.215-1.238,29.254-5.121-.219" transform="translate(-215 -498)" fill="#fff"/>
      <path id="Path_68" data-name="Path 68" d="M353.461,533.172l12.215.519-.192,4.5-7.093-.3-.282,6.6,7.094.3-.2,4.7-7.094-.3-.363,8.593,7.094.3-.207,4.863-12.215-.515,1.242-29.254" transform="translate(-215 -498)" fill="#fff"/>
      <path id="Path_69" data-name="Path 69" d="M380.336,526.434l5.4.23-4.214,4.715-3.383-.145Zm-8.285,7.527,6.363.269,7.281,20.708.864-20.36,4.824.2-1.242,29.25-5.746-.242-7.508-21.336L376,563.434l-5.187-.219,1.242-29.254" transform="translate(-215 -498)" fill="#fff"/>
      <path id="Path_70" data-name="Path 70" d="M254.5,606.3a16.367,16.367,0,0,0,6.188,1.488q2.525.105,3.379-.758a3.236,3.236,0,0,0,.492-1.976l.14-3.387a2.962,2.962,0,0,0-.148-1.445,1.378,1.378,0,0,0-.988-.493c-.246-.039-.766-.074-1.567-.109l-1.3-.031q-3.562-.153-4.579-1.485a6.343,6.343,0,0,1-.855-4.074l.23-5.441a5.136,5.136,0,0,1,1.606-3.86q1.869-1.6,6.152-1.414a16.694,16.694,0,0,1,6.215,1.293l-.191,4.567a24.272,24.272,0,0,0-6.043-1.309,3.99,3.99,0,0,0-2.407.52,1.726,1.726,0,0,0-.675,1.324c0,.086-.02.355-.036.812l-.1,2.4a2.882,2.882,0,0,0,.133,1.379c.187.265.652.433,1.394.511q.387.059,2.895.164a8.545,8.545,0,0,1,3.746.762c1.047.629,1.512,2.3,1.394,5.016l-.207,4.867a10.693,10.693,0,0,1-1.1,4.762q-1.512,2.659-7.3,2.414a15.185,15.185,0,0,1-6.672-1.571l.207-4.929" transform="translate(-215 -498)" fill="#fff"/>
      <path id="Path_71" data-name="Path 71" d="M275.254,583.934l5.547.234,2.465,19.34,5.187-19.016,5.809.246,3.2,20.789,4.391-20.464,4.949.207-6.856,29.015-5.378-.226-3.508-22.028-5.688,21.633-5.679-.238-4.434-29.492" transform="translate(-215 -498)" fill="#fff"/>
      <path id="Path_72" data-name="Path 72" d="M317.1,592.727l-.6,14.1a5.3,5.3,0,0,0,.34,2.723c.453.691,1.5,1.07,3.129,1.14,1.523.063,2.547-.222,3.058-.859a3.908,3.908,0,0,0,.614-2.269l.6-14.231a5.445,5.445,0,0,0-.175-2.324,1.8,1.8,0,0,0-.872-.746,8.627,8.627,0,0,0-2.668-.414,4.365,4.365,0,0,0-2.222.293A2.87,2.87,0,0,0,317.1,592.727Zm-5.914,15.359.742-17.4a5.489,5.489,0,0,1,1.566-4.141q1.477-1.248,7.731-.98,5.783.246,7.07,1.843c.723.891,1.035,2.352.949,4.379l-.722,17.035q-.141,3.427-1.668,4.977a4.982,4.982,0,0,1-2.93,1.269,24,24,0,0,1-3.957.09,21.759,21.759,0,0,1-6.145-.906,3.414,3.414,0,0,1-2.183-2.09,10.751,10.751,0,0,1-.453-4.074" transform="translate(-215 -498)" fill="#fff"/>
      <path id="Path_73" data-name="Path 73" d="M334.645,615.52l.214-5.012a4.042,4.042,0,0,0,2.133.84,1.639,1.639,0,0,0,1.617-.7,3.4,3.4,0,0,0,.325-1.555l.953-22.414,5.121.219-.953,22.414q-.153,3.556-.957,4.832a4.137,4.137,0,0,1-1.325,1.363,6.079,6.079,0,0,1-3.464.8,13.067,13.067,0,0,1-3.664-.781" transform="translate(-215 -498)" fill="#fff"/>
      <path id="Path_74" data-name="Path 74" d="M360.387,591.559l-3.7,14.121,6.239.265Zm9.234,25.683-.351.2-.375.2a7.217,7.217,0,0,0-1.571,1.07,2.805,2.805,0,0,0-.765,1.9,1.868,1.868,0,0,0,.808,1.692,1.339,1.339,0,0,0,.461.23,12.543,12.543,0,0,0,1.9.168.8.8,0,0,0,.258.031c.086,0,.223.012.407.02l-.09,2.164c-.2-.008-.41-.012-.621,0-.43,0-.782-.012-1.051-.023a5.166,5.166,0,0,1-3.281-1.129,3.267,3.267,0,0,1-1.243-2.672,4.978,4.978,0,0,1,.907-2.516,5.439,5.439,0,0,1,1.711-1.453l-2.164-.09-.911-6.351-8.1-.344-1.688,6.242-5.484-.234,8.828-28.93,6.559.278,6.152,29.566-.3-.012" transform="translate(-215 -498)" fill="#fff"/>
      <path id="Path_75" data-name="Path 75" d="M270.211,638.723,270,643.672a12.875,12.875,0,0,0-6.258-1.77q-3.773-.157-4.715,1.282a4.388,4.388,0,0,0-.472,2.1l-.606,14.188a2.954,2.954,0,0,0,.391,1.968c.422.535,1.473.836,3.16.907a4.466,4.466,0,0,0,2.723-.418,3.081,3.081,0,0,0,.718-2.289l.27-6.282-3.047-.129.188-4.39,7.671.324-.519,12.238c-.082,1.969-.543,3.356-1.375,4.149q-1.793,1.7-7.043,1.484-4.67-.2-6.59-1.527a4.228,4.228,0,0,1-1.57-2.965,14.962,14.962,0,0,1-.113-2.9l.66-15.516a7.036,7.036,0,0,1,1.675-4.672,5.089,5.089,0,0,1,1.821-1.3,15.871,15.871,0,0,1,6.469-.734,20.342,20.342,0,0,1,6.773,1.3" transform="translate(-215 -498)" fill="#fff"/>
      <path id="Path_76" data-name="Path 76" d="M276.477,661.355l-1.524,1.977-3.328-2.547,5.16-6.734.676-15.946,5.121.219-.363,8.637,2.25-2.977,3.324,2.567-5.887,7.715-.351,8.316,5.914.25-.211,4.992-11.039-.469.258-6" transform="translate(-215 -498)" fill="#fff"/>
      <path id="Path_77" data-name="Path 77" d="M298.367,646.012l-.6,14.1a5.362,5.362,0,0,0,.335,2.719q.687,1.037,3.129,1.145c1.532.062,2.551-.223,3.067-.86a4.023,4.023,0,0,0,.609-2.269l.606-14.231a5.586,5.586,0,0,0-.18-2.328,1.785,1.785,0,0,0-.871-.742,8.689,8.689,0,0,0-2.668-.414,4.38,4.38,0,0,0-2.223.293A2.876,2.876,0,0,0,298.367,646.012Zm-5.91,15.359.738-17.4a5.493,5.493,0,0,1,1.575-4.141q1.464-1.248,7.722-.98,5.79.246,7.071,1.843,1.083,1.336.957,4.379L309.8,662.1c-.1,2.286-.656,3.946-1.676,4.973a4.94,4.94,0,0,1-2.93,1.274,24.061,24.061,0,0,1-3.953.089,21.749,21.749,0,0,1-6.144-.906,3.429,3.429,0,0,1-2.188-2.09,10.863,10.863,0,0,1-.449-4.074" transform="translate(-215 -498)" fill="#fff"/>
      <path id="Path_78" data-name="Path 78" d="M316.078,639.746l5.551.234,2.465,19.34,5.183-19.015,5.809.246,3.2,20.789,4.391-20.469,4.949.211L340.77,670.1l-5.379-.231-3.512-22.023L326.2,669.477l-5.679-.239-4.438-29.492" transform="translate(-215 -498)" fill="#fff"/>
      <path id="Path_79" data-name="Path 79" d="M363.148,671.047l-.39.219-.4.2a7.436,7.436,0,0,0-1.57,1.07,2.83,2.83,0,0,0-.766,1.9,1.859,1.859,0,0,0,.809,1.687,1.2,1.2,0,0,0,.461.258,18.381,18.381,0,0,0,1.883.164c.043,0,.137.008.277.012.086,0,.223.015.406.039l-.089,2.144-.387,0c-.731-.015-1.156-.027-1.285-.031a5.17,5.17,0,0,1-3.282-1.129,3.264,3.264,0,0,1-1.238-2.672,4.7,4.7,0,0,1,2.594-3.945l.062-.043-8.785-.371,1.242-29.254,12.215.519-.187,4.5-7.1-.3-.277,6.6,7.094.3-.2,4.691-7.089-.3-.368,8.593,7.094.3-.207,4.863-.516-.019" transform="translate(-215 -498)" fill="#fff"/>
      <path id="Path_80" data-name="Path 80" d="M383.5,575.219c-2.25,1.82-1.59,16.207-1.308,24.32-.016,1.547-.055,3.086-.1,4.625q-.129,4.611-.36,9.227c.008.925.012,1.843.02,2.757.156,6.907-1.5,14.946,1.035,20.965,1,2.371,5.266,1.559,5.707,0,1.719-6.019,1.344-12.59,1.235-19.191a21.806,21.806,0,0,1,.074-2.914c.222-3.16.164-4.871.644-8.887.121-1.035-.07-3.141.11-4.2,1.015-9.176,3.492-27.567-2.426-28.281a7.93,7.93,0,0,0-4.633,1.578" transform="translate(-215 -498)" fill="#f14624"/>
      <path id="Path_81" data-name="Path 81" d="M378.961,665.18c2.621-2.184,6.168-1.012,7.777.484.832,1.524,1.36,5.934-.316,8.184-2.043,2.742-8.82,2.73-8.371-3.844a24.9,24.9,0,0,1,.91-4.824" transform="translate(-215 -498)" fill="#f14624"/>
    </g>
    <g id="Component_1_1" data-name="Component 1 – 1" transform="translate(0 458.727)">
      <g id="Group_2" data-name="Group 2" transform="translate(0 -458.727)" clip-path="url(#clip-path-2)">
        <path id="Path_82" data-name="Path 82" d="M17.746,565.512s-1.758,9.664,0-7.032,13.18-97.519,77.313-99.714,78.191,88.3,79.07,94.445-.715,14.43-.715,14.43,1.1-5.207,6.371-6.082,9.442,3.347,9.723,6.363c1.34,14.383-1.625,29.961-4.668,41.207-2.672,9.891-6.672,20.316-9.832,20.516-4.43.281-6.117-3.04-6.215-2.676-1.316,4.789-4.973,13.617-8.832,24.926-5.055,14.8-27.875,52.136-43.543,59.48C112.953,713,102,722.953,76.375,717.207c-22.551-5.055-38.648-38.3-42.766-47.039-12.828-27.215-15.57-44.332-15.57-44.332s-.43,6.445-5.27,3.809c-2.441-1.329-7.8-13.915-9.664-20.207C1.344,603.48-1.582,581.785,1.055,573s8.785-13.641,16.691-7.488" fill="#f14624"/>
      </g>
      <path id="Path_84" data-name="Path 84" d="M90.941,575.219c-2.254,1.82-1.594,16.207-1.309,24.32-.02,1.547-.059,3.086-.1,4.625q-.129,4.611-.356,9.227.012,1.387.016,2.757c.156,6.907-1.5,14.946,1.035,20.965,1,2.371,5.266,1.559,5.711,0,1.715-6.015,1.34-12.586,1.23-19.191a21.938,21.938,0,0,1,.074-2.914c.227-3.16.168-4.871.645-8.887.125-1.035-.07-3.141.109-4.2,1.016-9.176,3.492-27.567-2.422-28.281a7.915,7.915,0,0,0-4.633,1.578" transform="translate(0 -458.727)" fill="#f4f4f4"/>
      <path id="Path_85" data-name="Path 85" d="M86.4,665.18c2.621-2.18,6.168-1.012,7.777.484.836,1.524,1.363,5.934-.316,8.184-2.043,2.746-8.816,2.734-8.371-3.844a24.878,24.878,0,0,1,.91-4.824" transform="translate(0 -458.727)" fill="#f4f4f4"/>
      <path id="Path_86" data-name="Path 86" d="M59.324,509.848s7.481-28.461,36.231-28.907c17.5-.269,31.5,13.239,33.383,23.2.218,1.171-2.922,1.378-4.516,2.808-1.863,1.672,8.027,8.457,11.012,7.828,3.32-.7,7.527-10.636,7.527-10.636-.863-1.43-5.609-.387-6.4-1.243-1.286-1.386-1.5-3.707-2.5-5.464-6.325-11.125-15.028-23.434-40-23.434-14.113,0-31.344,5.039-42.156,35.75,0,.957,1.855,1.039,3.711,1.062s3.707-.007,3.707-.968" transform="translate(0 -458.727)" fill="#fff"/>
      <path id="Path_87" data-name="Path 87" d="M132.031,522.875s-7.48,28.457-36.23,28.9c-17.5.274-31.5-13.234-33.383-23.2-.219-1.168,2.922-1.379,4.516-2.8,1.863-1.672-8.027-8.457-11.012-7.832-3.32.7-7.527,10.636-7.527,10.636.863,1.434,5.609.391,6.4,1.242,1.285,1.387,1.5,3.711,2.5,5.469,6.324,11.125,15.027,23.434,40,23.434,14.113,0,31.348-5.039,42.152-35.75,0-.961-1.851-1.039-3.707-1.067s-3.707.012-3.707.973" transform="translate(0 -458.727)" fill="#fff"/>
    </g>
  </g>
</svg>
